# xmcd CD database file
#
# Track frame offsets:
#	150
#	15484
#	33710
#	46197
#	60147
#	73010
#	85835
#	100497
#	115835
#	128997
#	143360
#	156222
#	175122
#	189597
#	208797
#	223384
#
# Disc length: 3175 seconds
#
# Revision: 2
# Processed by: cddbd v1.4b41PL1 Copyright (c) Steve Scherf et al.
# Submitted via: Feurio! 1.50.2ß - http://www.feurio.com
#
DISCID=df0c6510
DTITLE=Various Artist - Easy Listening 2
DYEAR=1900
DGENRE=
TTITLE0=Glenn Miller Orchestra - Moolight Serenade
TTITLE1=Sara Vaughn - Lullaby Of Birdland
TTITLE2=Harry James Feat. Dick Hay - Here Comes The Night
TTITLE3=Count Basie - O Lady Be Good
TTITLE4=Billy Holliday - I Got The Right To Sing The Blues
TTITLE5=The Oscar Peterson Trio - In The Still Of The Night
TTITLE6=Billy Holliday - Georgia On My Mind
TTITLE7=Nat King Cole - Mona Lisa
TTITLE8=Lionel Hampton - Flying Home
TTITLE9=Eydie Gorme - Breaking Up Is Hard To Do
TTITLE10=Tony Bennett - Life Is A Song
TTITLE11=Benny Goodman - Don't Be That Way
TTITLE12=Harry James - September Song
TTITLE13=Count Basie - Going To Chicago
TTITLE14=Woody Herman - Early Autumn
TTITLE15=Glenn Miller Orchestra - American Patrol
EXTD=Eigentümerin Petra Rieck
EXTT0=
EXTT1=
EXTT2=
EXTT3=
EXTT4=
EXTT5=
EXTT6=
EXTT7=
EXTT8=
EXTT9=
EXTT10=
EXTT11=
EXTT12=
EXTT13=
EXTT14=
EXTT15=
PLAYORDER=
